```sh
[a@localhost SCTE35-threefive]$ time tsp -I file /mnt/build/plp0.ts  -P tables --pid 0x03F7 --pid 0x040B --pid 0x0415 --pid 0x041F --pid 0x0451 --text -  -O drop

* SCTE 35 Splice Information, TID 252 (0xFC), PID 1055 (0x041F)
  Short section, total size: 50 bytes
  - Section 0:
    Protocol version: 0x00 (0)
    Encryption: none
    PTS adjustment: 0x000000000 (0)
    CW index: 0xFF (255), tier: 0xFFF (4095)
    Command type: 0x05 (SpliceInsert), size: 20 bytes
    Splice event id: 0x00000012, cancel: 0
    Out of network: yes, program splice: yes, duration set: yes, immediate: no
    Time PTS: 0x075C14B4A
    Duration PTS: 0x00066FF30 (6750000), auto return: no
    Unique program id: 0x0001 (1), avail: 0x12 (18), avails expected: 255
    - Descriptor 0: SCTE 35 Avail (0x00, 0), 8 bytes
      Identifier: 0x43554549 ("CUEI")
      Provider id: 0x00000012
    CRC32: 0xEAA8473F (OK)

* SCTE 35 Splice Information, TID 252 (0xFC), PID 1055 (0x041F)
  Short section, total size: 50 bytes
  - Section 0:
    Protocol version: 0x00 (0)
    Encryption: none
    PTS adjustment: 0x000000000 (0)
    CW index: 0xFF (255), tier: 0xFFF (4095)
    Command type: 0x05 (SpliceInsert), size: 20 bytes
    Splice event id: 0x00000012, cancel: 0
    Out of network: yes, program splice: yes, duration set: yes, immediate: no
    Time PTS: 0x075C14B4A
    Duration PTS: 0x00066FF30 (6750000), auto return: no
    Unique program id: 0x0001 (1), avail: 0x12 (18), avails expected: 255
    - Descriptor 0: SCTE 35 Avail (0x00, 0), 8 bytes
      Identifier: 0x43554549 ("CUEI")
      Provider id: 0x00000012
    CRC32: 0xEAA8473F (OK)

* SCTE 35 Splice Information, TID 252 (0xFC), PID 1055 (0x041F)
  Short section, total size: 50 bytes
  - Section 0:
    Protocol version: 0x00 (0)
    Encryption: none
    PTS adjustment: 0x000000000 (0)
    CW index: 0xFF (255), tier: 0xFFF (4095)
    Command type: 0x05 (SpliceInsert), size: 20 bytes
    Splice event id: 0x00000012, cancel: 0
    Out of network: yes, program splice: yes, duration set: yes, immediate: no
    Time PTS: 0x075C14B4A
    Duration PTS: 0x00066FF30 (6750000), auto return: no
    Unique program id: 0x0001 (1), avail: 0x12 (18), avails expected: 255
    - Descriptor 0: SCTE 35 Avail (0x00, 0), 8 bytes
      Identifier: 0x43554549 ("CUEI")
      Provider id: 0x00000012
    CRC32: 0xEAA8473F (OK)

* SCTE 35 Splice Information, TID 252 (0xFC), PID 1015 (0x03F7)
  Short section, total size: 50 bytes
  - Section 0:
    Protocol version: 0x00 (0)
    Encryption: none
    PTS adjustment: 0x000000000 (0)
    CW index: 0xFF (255), tier: 0xFFF (4095)
    Command type: 0x05 (SpliceInsert), size: 20 bytes
    Splice event id: 0x400004F6, cancel: 0
    Out of network: yes, program splice: yes, duration set: yes, immediate: no
    Time PTS: 0x078CA4459
    Duration PTS: 0x000F73140 (16200000), auto return: no
    Unique program id: 0x0001 (1), avail: 0x0B (11), avails expected: 255
    - Descriptor 0: SCTE 35 Avail (0x00, 0), 8 bytes
      Identifier: 0x43554549 ("CUEI")
      Provider id: 0x0000000B
    CRC32: 0x045999F6 (OK)

* SCTE 35 Splice Information, TID 252 (0xFC), PID 1015 (0x03F7)
  Short section, total size: 50 bytes
  - Section 0:
    Protocol version: 0x00 (0)
    Encryption: none
    PTS adjustment: 0x000000000 (0)
    CW index: 0xFF (255), tier: 0xFFF (4095)
    Command type: 0x05 (SpliceInsert), size: 20 bytes
    Splice event id: 0x400004F6, cancel: 0
    Out of network: yes, program splice: yes, duration set: yes, immediate: no
    Time PTS: 0x078CA4459
    Duration PTS: 0x000F73140 (16200000), auto return: no
    Unique program id: 0x0001 (1), avail: 0x0B (11), avails expected: 255
    - Descriptor 0: SCTE 35 Avail (0x00, 0), 8 bytes
      Identifier: 0x43554549 ("CUEI")
      Provider id: 0x0000000B
    CRC32: 0x045999F6 (OK)

* SCTE 35 Splice Information, TID 252 (0xFC), PID 1055 (0x041F)
  Short section, total size: 45 bytes
  - Section 0:
    Protocol version: 0x00 (0)
    Encryption: none
    PTS adjustment: 0x000000000 (0)
    CW index: 0xFF (255), tier: 0xFFF (4095)
    Command type: 0x05 (SpliceInsert), size: 15 bytes
    Splice event id: 0x00000012, cancel: 0
    Out of network: no, program splice: yes, duration set: no, immediate: no
    Time PTS: 0x076284A7A
    Unique program id: 0x0001 (1), avail: 0x12 (18), avails expected: 255
    - Descriptor 0: SCTE 35 Avail (0x00, 0), 8 bytes
      Identifier: 0x43554549 ("CUEI")
      Provider id: 0x00000012
    CRC32: 0x1ED64BDB (OK)

* SCTE 35 Splice Information, TID 252 (0xFC), PID 1055 (0x041F)
  Short section, total size: 45 bytes
  - Section 0:
    Protocol version: 0x00 (0)
    Encryption: none
    PTS adjustment: 0x000000000 (0)
    CW index: 0xFF (255), tier: 0xFFF (4095)
    Command type: 0x05 (SpliceInsert), size: 15 bytes
    Splice event id: 0x00000012, cancel: 0
    Out of network: no, program splice: yes, duration set: no, immediate: no
    Time PTS: 0x076284A7A
    Unique program id: 0x0001 (1), avail: 0x12 (18), avails expected: 255
    - Descriptor 0: SCTE 35 Avail (0x00, 0), 8 bytes
      Identifier: 0x43554549 ("CUEI")
      Provider id: 0x00000012
    CRC32: 0x1ED64BDB (OK)

* SCTE 35 Splice Information, TID 252 (0xFC), PID 1055 (0x041F)
  Short section, total size: 45 bytes
  - Section 0:
    Protocol version: 0x00 (0)
    Encryption: none
    PTS adjustment: 0x000000000 (0)
    CW index: 0xFF (255), tier: 0xFFF (4095)
    Command type: 0x05 (SpliceInsert), size: 15 bytes
    Splice event id: 0x00000012, cancel: 0
    Out of network: no, program splice: yes, duration set: no, immediate: no
    Time PTS: 0x076284A7A
    Unique program id: 0x0001 (1), avail: 0x12 (18), avails expected: 255
    - Descriptor 0: SCTE 35 Avail (0x00, 0), 8 bytes
      Identifier: 0x43554549 ("CUEI")
      Provider id: 0x00000012
    CRC32: 0x1ED64BDB (OK)

* SCTE 35 Splice Information, TID 252 (0xFC), PID 1045 (0x0415)
  Short section, total size: 50 bytes
  - Section 0:
    Protocol version: 0x00 (0)
    Encryption: none
    PTS adjustment: 0x000000000 (0)
    CW index: 0xFF (255), tier: 0xFFF (4095)
    Command type: 0x05 (SpliceInsert), size: 20 bytes
    Splice event id: 0x00000016, cancel: 0
    Out of network: yes, program splice: yes, duration set: yes, immediate: no
    Time PTS: 0x07AA76812
    Duration PTS: 0x00083D600 (8640000), auto return: yes
    Unique program id: 0x000A (10), avail: 0x08 (8), avails expected: 255
    - Descriptor 0: SCTE 35 Avail (0x00, 0), 8 bytes
      Identifier: 0x43554549 ("CUEI")
      Provider id: 0x00000008
    CRC32: 0x43101852 (OK)

* SCTE 35 Splice Information, TID 252 (0xFC), PID 1045 (0x0415)
  Short section, total size: 50 bytes
  - Section 0:
    Protocol version: 0x00 (0)
    Encryption: none
    PTS adjustment: 0x000000000 (0)
    CW index: 0xFF (255), tier: 0xFFF (4095)
    Command type: 0x05 (SpliceInsert), size: 20 bytes
    Splice event id: 0x00000017, cancel: 0
    Out of network: yes, program splice: yes, duration set: yes, immediate: no
    Time PTS: 0x07AAFA572
    Duration PTS: 0x0007B98A0 (8100000), auto return: yes
    Unique program id: 0x0001 (1), avail: 0x08 (8), avails expected: 255
    - Descriptor 0: SCTE 35 Avail (0x00, 0), 8 bytes
      Identifier: 0x43554549 ("CUEI")
      Provider id: 0x00000008
    CRC32: 0x4ADEEB3E (OK)

* SCTE 35 Splice Information, TID 252 (0xFC), PID 1015 (0x03F7)
  Short section, total size: 45 bytes
  - Section 0:
    Protocol version: 0x00 (0)
    Encryption: none
    PTS adjustment: 0x000000000 (0)
    CW index: 0xFF (255), tier: 0xFFF (4095)
    Command type: 0x05 (SpliceInsert), size: 15 bytes
    Splice event id: 0x400004F6, cancel: 0
    Out of network: no, program splice: yes, duration set: no, immediate: no
    Time PTS: 0x079C17599
    Unique program id: 0x0001 (1), avail: 0x0B (11), avails expected: 255
    - Descriptor 0: SCTE 35 Avail (0x00, 0), 8 bytes
      Identifier: 0x43554549 ("CUEI")
      Provider id: 0x0000000B
    CRC32: 0x2E655951 (OK)

* SCTE 35 Splice Information, TID 252 (0xFC), PID 1015 (0x03F7)
  Short section, total size: 45 bytes
  - Section 0:
    Protocol version: 0x00 (0)
    Encryption: none
    PTS adjustment: 0x000000000 (0)
    CW index: 0xFF (255), tier: 0xFFF (4095)
    Command type: 0x05 (SpliceInsert), size: 15 bytes
    Splice event id: 0x400004F6, cancel: 0
    Out of network: no, program splice: yes, duration set: no, immediate: no
    Time PTS: 0x079C17599
    Unique program id: 0x0001 (1), avail: 0x0B (11), avails expected: 255
    - Descriptor 0: SCTE 35 Avail (0x00, 0), 8 bytes
      Identifier: 0x43554549 ("CUEI")
      Provider id: 0x0000000B
    CRC32: 0x2E655951 (OK)

* SCTE 35 Splice Information, TID 252 (0xFC), PID 1045 (0x0415)
  Short section, total size: 45 bytes
  - Section 0:
    Protocol version: 0x00 (0)
    Encryption: none
    PTS adjustment: 0x000000000 (0)
    CW index: 0xFF (255), tier: 0xFFF (4095)
    Command type: 0x05 (SpliceInsert), size: 15 bytes
    Splice event id: 0x00000018, cancel: 0
    Out of network: no, program splice: yes, duration set: no, immediate: no
    Time PTS: 0x07B2B3E12
    Unique program id: 0x0001 (1), avail: 0x08 (8), avails expected: 255
    - Descriptor 0: SCTE 35 Avail (0x00, 0), 8 bytes
      Identifier: 0x43554549 ("CUEI")
      Provider id: 0x00000008
    CRC32: 0xD497DA82 (OK)

* SCTE 35 Splice Information, TID 252 (0xFC), PID 1015 (0x03F7)
  Short section, total size: 50 bytes
  - Section 0:
    Protocol version: 0x00 (0)
    Encryption: none
    PTS adjustment: 0x000000000 (0)
    CW index: 0xFF (255), tier: 0xFFF (4095)
    Command type: 0x05 (SpliceInsert), size: 20 bytes
    Splice event id: 0x400004F7, cancel: 0
    Out of network: yes, program splice: yes, duration set: yes, immediate: no
    Time PTS: 0x07E2772B9
    Duration PTS: 0x000F73140 (16200000), auto return: no
    Unique program id: 0x0001 (1), avail: 0x0C (12), avails expected: 255
    - Descriptor 0: SCTE 35 Avail (0x00, 0), 8 bytes
      Identifier: 0x43554549 ("CUEI")
      Provider id: 0x0000000C
    CRC32: 0xF85CCA9D (OK)

* SCTE 35 Splice Information, TID 252 (0xFC), PID 1015 (0x03F7)
  Short section, total size: 50 bytes
  - Section 0:
    Protocol version: 0x00 (0)
    Encryption: none
    PTS adjustment: 0x000000000 (0)
    CW index: 0xFF (255), tier: 0xFFF (4095)
    Command type: 0x05 (SpliceInsert), size: 20 bytes
    Splice event id: 0x400004F7, cancel: 0
    Out of network: yes, program splice: yes, duration set: yes, immediate: no
    Time PTS: 0x07E2772B9
    Duration PTS: 0x000F73140 (16200000), auto return: no
    Unique program id: 0x0001 (1), avail: 0x0C (12), avails expected: 255
    - Descriptor 0: SCTE 35 Avail (0x00, 0), 8 bytes
      Identifier: 0x43554549 ("CUEI")
      Provider id: 0x0000000C
    CRC32: 0xF85CCA9D (OK)

* SCTE 35 Splice Information, TID 252 (0xFC), PID 1015 (0x03F7)
  Short section, total size: 45 bytes
  - Section 0:
    Protocol version: 0x00 (0)
    Encryption: none
    PTS adjustment: 0x000000000 (0)
    CW index: 0xFF (255), tier: 0xFFF (4095)
    Command type: 0x05 (SpliceInsert), size: 15 bytes
    Splice event id: 0x400004F7, cancel: 0
    Out of network: no, program splice: yes, duration set: no, immediate: no
    Time PTS: 0x07F1EA3F9
    Unique program id: 0x0001 (1), avail: 0x0C (12), avails expected: 255
    - Descriptor 0: SCTE 35 Avail (0x00, 0), 8 bytes
      Identifier: 0x43554549 ("CUEI")
      Provider id: 0x0000000C
    CRC32: 0x33F3C14D (OK)

* SCTE 35 Splice Information, TID 252 (0xFC), PID 1015 (0x03F7)
  Short section, total size: 45 bytes
  - Section 0:
    Protocol version: 0x00 (0)
    Encryption: none
    PTS adjustment: 0x000000000 (0)
    CW index: 0xFF (255), tier: 0xFFF (4095)
    Command type: 0x05 (SpliceInsert), size: 15 bytes
    Splice event id: 0x400004F7, cancel: 0
    Out of network: no, program splice: yes, duration set: no, immediate: no
    Time PTS: 0x07F1EA3F9
    Unique program id: 0x0001 (1), avail: 0x0C (12), avails expected: 255
    - Descriptor 0: SCTE 35 Avail (0x00, 0), 8 bytes
      Identifier: 0x43554549 ("CUEI")
      Provider id: 0x0000000C
    CRC32: 0x33F3C14D (OK)

* SCTE 35 Splice Information, TID 252 (0xFC), PID 1035 (0x040B)
  Short section, total size: 45 bytes
  - Section 0:
    Protocol version: 0x00 (0)
    Encryption: none
    PTS adjustment: 0x000000000 (0)
    CW index: 0xFF (255), tier: 0xFFF (4095)
    Command type: 0x05 (SpliceInsert), size: 15 bytes
    Splice event id: 0x0000163A, cancel: 0
    Out of network: yes, program splice: yes, duration set: no, immediate: no
    Time PTS: 0x07F0C4F73
    Unique program id: 0x0000 (0), avail: 0x00 (0), avails expected: 0
    - Descriptor 0: SCTE 35 Avail (0x00, 0), 8 bytes
      Identifier: 0x43554549 ("CUEI")
      Provider id: 0x00000000
    CRC32: 0xD7165C79 (OK)


real	0m9.845s
user	0m3.453s
sys	0m3.597s
[a@localhost SCTE35-threefive]$ time pypy3 -c "from threefive import decode; decode('/mnt/build/plp0.ts')"
{
    "info_section": {
        "table_id": "0xfc",
        "section_syntax_indicator": false,
        "private": false,
        "sap_type": "0x3",
        "sap_details": "No Sap Type",
        "section_length": 47,
        "protocol_version": 0,
        "encrypted_packet": false,
        "encryption_algorithm": 0,
        "pts_adjustment": 0.0,
        "cw_index": "0xff",
        "tier": "0xfff",
        "splice_command_length": 20,
        "splice_command_type": 5,
        "descriptor_loop_length": 10
    },
    "command": {
        "command_length": 20,
        "command_type": 5,
        "name": "Splice Insert",
        "time_specified_flag": true,
        "pts_time": 21951.133267,
        "break_auto_return": false,
        "break_duration": 75.0,
        "splice_event_id": 18,
        "splice_event_cancel_indicator": false,
        "out_of_network_indicator": true,
        "program_splice_flag": true,
        "duration_flag": true,
        "splice_immediate_flag": false,
        "unique_program_id": 1,
        "avail_num": 18,
        "avail_expected": 255
    },
    "descriptors": [
        {
            "tag": 0,
            "descriptor_length": 8,
            "identifier": "CUEI",
            "name": "Avail Descriptor",
            "provider_avail_id": 18
        }
    ],
    "crc": "0xeaa8473f",
    "pid": 1055,
    "program": 1050,
    "pts": 21940.713289
}
{
    "info_section": {
        "table_id": "0xfc",
        "section_syntax_indicator": false,
        "private": false,
        "sap_type": "0x3",
        "sap_details": "No Sap Type",
        "section_length": 47,
        "protocol_version": 0,
        "encrypted_packet": false,
        "encryption_algorithm": 0,
        "pts_adjustment": 0.0,
        "cw_index": "0xff",
        "tier": "0xfff",
        "splice_command_length": 20,
        "splice_command_type": 5,
        "descriptor_loop_length": 10
    },
    "command": {
        "command_length": 20,
        "command_type": 5,
        "name": "Splice Insert",
        "time_specified_flag": true,
        "pts_time": 21951.133267,
        "break_auto_return": false,
        "break_duration": 75.0,
        "splice_event_id": 18,
        "splice_event_cancel_indicator": false,
        "out_of_network_indicator": true,
        "program_splice_flag": true,
        "duration_flag": true,
        "splice_immediate_flag": false,
        "unique_program_id": 1,
        "avail_num": 18,
        "avail_expected": 255
    },
    "descriptors": [
        {
            "tag": 0,
            "descriptor_length": 8,
            "identifier": "CUEI",
            "name": "Avail Descriptor",
            "provider_avail_id": 18
        }
    ],
    "crc": "0xeaa8473f",
    "pid": 1055,
    "program": 1050,
    "pts": 21942.713289
}
{
    "info_section": {
        "table_id": "0xfc",
        "section_syntax_indicator": false,
        "private": false,
        "sap_type": "0x3",
        "sap_details": "No Sap Type",
        "section_length": 47,
        "protocol_version": 0,
        "encrypted_packet": false,
        "encryption_algorithm": 0,
        "pts_adjustment": 0.0,
        "cw_index": "0xff",
        "tier": "0xfff",
        "splice_command_length": 20,
        "splice_command_type": 5,
        "descriptor_loop_length": 10
    },
    "command": {
        "command_length": 20,
        "command_type": 5,
        "name": "Splice Insert",
        "time_specified_flag": true,
        "pts_time": 21951.133267,
        "break_auto_return": false,
        "break_duration": 75.0,
        "splice_event_id": 18,
        "splice_event_cancel_indicator": false,
        "out_of_network_indicator": true,
        "program_splice_flag": true,
        "duration_flag": true,
        "splice_immediate_flag": false,
        "unique_program_id": 1,
        "avail_num": 18,
        "avail_expected": 255
    },
    "descriptors": [
        {
            "tag": 0,
            "descriptor_length": 8,
            "identifier": "CUEI",
            "name": "Avail Descriptor",
            "provider_avail_id": 18
        }
    ],
    "crc": "0xeaa8473f",
    "pid": 1055,
    "program": 1050,
    "pts": 21944.713289
}
{
    "info_section": {
        "table_id": "0xfc",
        "section_syntax_indicator": false,
        "private": false,
        "sap_type": "0x3",
        "sap_details": "No Sap Type",
        "section_length": 47,
        "protocol_version": 0,
        "encrypted_packet": false,
        "encryption_algorithm": 0,
        "pts_adjustment": 0.0,
        "cw_index": "0xff",
        "tier": "0xfff",
        "splice_command_length": 20,
        "splice_command_type": 5,
        "descriptor_loop_length": 10
    },
    "command": {
        "command_length": 20,
        "command_type": 5,
        "name": "Splice Insert",
        "time_specified_flag": true,
        "pts_time": 22516.907656,
        "break_auto_return": false,
        "break_duration": 180.0,
        "splice_event_id": 1073743094,
        "splice_event_cancel_indicator": false,
        "out_of_network_indicator": true,
        "program_splice_flag": true,
        "duration_flag": true,
        "splice_immediate_flag": false,
        "unique_program_id": 1,
        "avail_num": 11,
        "avail_expected": 255
    },
    "descriptors": [
        {
            "tag": 0,
            "descriptor_length": 8,
            "identifier": "CUEI",
            "name": "Avail Descriptor",
            "provider_avail_id": 11
        }
    ],
    "crc": "0x45999f6",
    "pid": 1015,
    "program": 1010,
    "pts": 22508.473067
}
{
    "info_section": {
        "table_id": "0xfc",
        "section_syntax_indicator": false,
        "private": false,
        "sap_type": "0x3",
        "sap_details": "No Sap Type",
        "section_length": 47,
        "protocol_version": 0,
        "encrypted_packet": false,
        "encryption_algorithm": 0,
        "pts_adjustment": 0.0,
        "cw_index": "0xff",
        "tier": "0xfff",
        "splice_command_length": 20,
        "splice_command_type": 5,
        "descriptor_loop_length": 10
    },
    "command": {
        "command_length": 20,
        "command_type": 5,
        "name": "Splice Insert",
        "time_specified_flag": true,
        "pts_time": 22516.907656,
        "break_auto_return": false,
        "break_duration": 180.0,
        "splice_event_id": 1073743094,
        "splice_event_cancel_indicator": false,
        "out_of_network_indicator": true,
        "program_splice_flag": true,
        "duration_flag": true,
        "splice_immediate_flag": false,
        "unique_program_id": 1,
        "avail_num": 11,
        "avail_expected": 255
    },
    "descriptors": [
        {
            "tag": 0,
            "descriptor_length": 8,
            "identifier": "CUEI",
            "name": "Avail Descriptor",
            "provider_avail_id": 11
        }
    ],
    "crc": "0x45999f6",
    "pid": 1015,
    "program": 1010,
    "pts": 22510.473067
}
{
    "info_section": {
        "table_id": "0xfc",
        "section_syntax_indicator": false,
        "private": false,
        "sap_type": "0x3",
        "sap_details": "No Sap Type",
        "section_length": 42,
        "protocol_version": 0,
        "encrypted_packet": false,
        "encryption_algorithm": 0,
        "pts_adjustment": 0.0,
        "cw_index": "0xff",
        "tier": "0xfff",
        "splice_command_length": 15,
        "splice_command_type": 5,
        "descriptor_loop_length": 10
    },
    "command": {
        "command_length": 15,
        "command_type": 5,
        "name": "Splice Insert",
        "time_specified_flag": true,
        "pts_time": 22026.133267,
        "splice_event_id": 18,
        "splice_event_cancel_indicator": false,
        "out_of_network_indicator": false,
        "program_splice_flag": true,
        "duration_flag": false,
        "splice_immediate_flag": false,
        "unique_program_id": 1,
        "avail_num": 18,
        "avail_expected": 255
    },
    "descriptors": [
        {
            "tag": 0,
            "descriptor_length": 8,
            "identifier": "CUEI",
            "name": "Avail Descriptor",
            "provider_avail_id": 18
        }
    ],
    "crc": "0x1ed64bdb",
    "pid": 1055,
    "program": 1050,
    "pts": 22015.713289
}
{
    "info_section": {
        "table_id": "0xfc",
        "section_syntax_indicator": false,
        "private": false,
        "sap_type": "0x3",
        "sap_details": "No Sap Type",
        "section_length": 42,
        "protocol_version": 0,
        "encrypted_packet": false,
        "encryption_algorithm": 0,
        "pts_adjustment": 0.0,
        "cw_index": "0xff",
        "tier": "0xfff",
        "splice_command_length": 15,
        "splice_command_type": 5,
        "descriptor_loop_length": 10
    },
    "command": {
        "command_length": 15,
        "command_type": 5,
        "name": "Splice Insert",
        "time_specified_flag": true,
        "pts_time": 22026.133267,
        "splice_event_id": 18,
        "splice_event_cancel_indicator": false,
        "out_of_network_indicator": false,
        "program_splice_flag": true,
        "duration_flag": false,
        "splice_immediate_flag": false,
        "unique_program_id": 1,
        "avail_num": 18,
        "avail_expected": 255
    },
    "descriptors": [
        {
            "tag": 0,
            "descriptor_length": 8,
            "identifier": "CUEI",
            "name": "Avail Descriptor",
            "provider_avail_id": 18
        }
    ],
    "crc": "0x1ed64bdb",
    "pid": 1055,
    "program": 1050,
    "pts": 22017.713289
}
{
    "info_section": {
        "table_id": "0xfc",
        "section_syntax_indicator": false,
        "private": false,
        "sap_type": "0x3",
        "sap_details": "No Sap Type",
        "section_length": 42,
        "protocol_version": 0,
        "encrypted_packet": false,
        "encryption_algorithm": 0,
        "pts_adjustment": 0.0,
        "cw_index": "0xff",
        "tier": "0xfff",
        "splice_command_length": 15,
        "splice_command_type": 5,
        "descriptor_loop_length": 10
    },
    "command": {
        "command_length": 15,
        "command_type": 5,
        "name": "Splice Insert",
        "time_specified_flag": true,
        "pts_time": 22026.133267,
        "splice_event_id": 18,
        "splice_event_cancel_indicator": false,
        "out_of_network_indicator": false,
        "program_splice_flag": true,
        "duration_flag": false,
        "splice_immediate_flag": false,
        "unique_program_id": 1,
        "avail_num": 18,
        "avail_expected": 255
    },
    "descriptors": [
        {
            "tag": 0,
            "descriptor_length": 8,
            "identifier": "CUEI",
            "name": "Avail Descriptor",
            "provider_avail_id": 18
        }
    ],
    "crc": "0x1ed64bdb",
    "pid": 1055,
    "program": 1050,
    "pts": 22019.713289
}
{
    "info_section": {
        "table_id": "0xfc",
        "section_syntax_indicator": false,
        "private": false,
        "sap_type": "0x3",
        "sap_details": "No Sap Type",
        "section_length": 47,
        "protocol_version": 0,
        "encrypted_packet": false,
        "encryption_algorithm": 0,
        "pts_adjustment": 0.0,
        "cw_index": "0xff",
        "tier": "0xfff",
        "splice_command_length": 20,
        "splice_command_type": 5,
        "descriptor_loop_length": 10
    },
    "command": {
        "command_length": 20,
        "command_type": 5,
        "name": "Splice Insert",
        "time_specified_flag": true,
        "pts_time": 22864.350067,
        "break_auto_return": true,
        "break_duration": 96.0,
        "splice_event_id": 22,
        "splice_event_cancel_indicator": false,
        "out_of_network_indicator": true,
        "program_splice_flag": true,
        "duration_flag": true,
        "splice_immediate_flag": false,
        "unique_program_id": 10,
        "avail_num": 8,
        "avail_expected": 255
    },
    "descriptors": [
        {
            "tag": 0,
            "descriptor_length": 8,
            "identifier": "CUEI",
            "name": "Avail Descriptor",
            "provider_avail_id": 8
        }
    ],
    "crc": "0x43101852",
    "pid": 1045,
    "program": 1040,
    "pts": 22857.910044
}
{
    "info_section": {
        "table_id": "0xfc",
        "section_syntax_indicator": false,
        "private": false,
        "sap_type": "0x3",
        "sap_details": "No Sap Type",
        "section_length": 47,
        "protocol_version": 0,
        "encrypted_packet": false,
        "encryption_algorithm": 0,
        "pts_adjustment": 0.0,
        "cw_index": "0xff",
        "tier": "0xfff",
        "splice_command_length": 20,
        "splice_command_type": 5,
        "descriptor_loop_length": 10
    },
    "command": {
        "command_length": 20,
        "command_type": 5,
        "name": "Splice Insert",
        "time_specified_flag": true,
        "pts_time": 22870.350067,
        "break_auto_return": true,
        "break_duration": 90.0,
        "splice_event_id": 23,
        "splice_event_cancel_indicator": false,
        "out_of_network_indicator": true,
        "program_splice_flag": true,
        "duration_flag": true,
        "splice_immediate_flag": false,
        "unique_program_id": 1,
        "avail_num": 8,
        "avail_expected": 255
    },
    "descriptors": [
        {
            "tag": 0,
            "descriptor_length": 8,
            "identifier": "CUEI",
            "name": "Avail Descriptor",
            "provider_avail_id": 8
        }
    ],
    "crc": "0x4adeeb3e",
    "pid": 1045,
    "program": 1040,
    "pts": 22863.910044
}
{
    "info_section": {
        "table_id": "0xfc",
        "section_syntax_indicator": false,
        "private": false,
        "sap_type": "0x3",
        "sap_details": "No Sap Type",
        "section_length": 42,
        "protocol_version": 0,
        "encrypted_packet": false,
        "encryption_algorithm": 0,
        "pts_adjustment": 0.0,
        "cw_index": "0xff",
        "tier": "0xfff",
        "splice_command_length": 15,
        "splice_command_type": 5,
        "descriptor_loop_length": 10
    },
    "command": {
        "command_length": 15,
        "command_type": 5,
        "name": "Splice Insert",
        "time_specified_flag": true,
        "pts_time": 22696.907656,
        "splice_event_id": 1073743094,
        "splice_event_cancel_indicator": false,
        "out_of_network_indicator": false,
        "program_splice_flag": true,
        "duration_flag": false,
        "splice_immediate_flag": false,
        "unique_program_id": 1,
        "avail_num": 11,
        "avail_expected": 255
    },
    "descriptors": [
        {
            "tag": 0,
            "descriptor_length": 8,
            "identifier": "CUEI",
            "name": "Avail Descriptor",
            "provider_avail_id": 11
        }
    ],
    "crc": "0x2e655951",
    "pid": 1015,
    "program": 1010,
    "pts": 22688.473067
}
{
    "info_section": {
        "table_id": "0xfc",
        "section_syntax_indicator": false,
        "private": false,
        "sap_type": "0x3",
        "sap_details": "No Sap Type",
        "section_length": 42,
        "protocol_version": 0,
        "encrypted_packet": false,
        "encryption_algorithm": 0,
        "pts_adjustment": 0.0,
        "cw_index": "0xff",
        "tier": "0xfff",
        "splice_command_length": 15,
        "splice_command_type": 5,
        "descriptor_loop_length": 10
    },
    "command": {
        "command_length": 15,
        "command_type": 5,
        "name": "Splice Insert",
        "time_specified_flag": true,
        "pts_time": 22696.907656,
        "splice_event_id": 1073743094,
        "splice_event_cancel_indicator": false,
        "out_of_network_indicator": false,
        "program_splice_flag": true,
        "duration_flag": false,
        "splice_immediate_flag": false,
        "unique_program_id": 1,
        "avail_num": 11,
        "avail_expected": 255
    },
    "descriptors": [
        {
            "tag": 0,
            "descriptor_length": 8,
            "identifier": "CUEI",
            "name": "Avail Descriptor",
            "provider_avail_id": 11
        }
    ],
    "crc": "0x2e655951",
    "pid": 1015,
    "program": 1010,
    "pts": 22690.473067
}
{
    "info_section": {
        "table_id": "0xfc",
        "section_syntax_indicator": false,
        "private": false,
        "sap_type": "0x3",
        "sap_details": "No Sap Type",
        "section_length": 42,
        "protocol_version": 0,
        "encrypted_packet": false,
        "encryption_algorithm": 0,
        "pts_adjustment": 0.0,
        "cw_index": "0xff",
        "tier": "0xfff",
        "splice_command_length": 15,
        "splice_command_type": 5,
        "descriptor_loop_length": 10
    },
    "command": {
        "command_length": 15,
        "command_type": 5,
        "name": "Splice Insert",
        "time_specified_flag": true,
        "pts_time": 22960.350067,
        "splice_event_id": 24,
        "splice_event_cancel_indicator": false,
        "out_of_network_indicator": false,
        "program_splice_flag": true,
        "duration_flag": false,
        "splice_immediate_flag": false,
        "unique_program_id": 1,
        "avail_num": 8,
        "avail_expected": 255
    },
    "descriptors": [
        {
            "tag": 0,
            "descriptor_length": 8,
            "identifier": "CUEI",
            "name": "Avail Descriptor",
            "provider_avail_id": 8
        }
    ],
    "crc": "0xd497da82",
    "pid": 1045,
    "program": 1040,
    "pts": 22953.910044
}
{
    "info_section": {
        "table_id": "0xfc",
        "section_syntax_indicator": false,
        "private": false,
        "sap_type": "0x3",
        "sap_details": "No Sap Type",
        "section_length": 47,
        "protocol_version": 0,
        "encrypted_packet": false,
        "encryption_algorithm": 0,
        "pts_adjustment": 0.0,
        "cw_index": "0xff",
        "tier": "0xfff",
        "splice_command_length": 20,
        "splice_command_type": 5,
        "descriptor_loop_length": 10
    },
    "command": {
        "command_length": 20,
        "command_type": 5,
        "name": "Splice Insert",
        "time_specified_flag": true,
        "pts_time": 23516.827656,
        "break_auto_return": false,
        "break_duration": 180.0,
        "splice_event_id": 1073743095,
        "splice_event_cancel_indicator": false,
        "out_of_network_indicator": true,
        "program_splice_flag": true,
        "duration_flag": true,
        "splice_immediate_flag": false,
        "unique_program_id": 1,
        "avail_num": 12,
        "avail_expected": 255
    },
    "descriptors": [
        {
            "tag": 0,
            "descriptor_length": 8,
            "identifier": "CUEI",
            "name": "Avail Descriptor",
            "provider_avail_id": 12
        }
    ],
    "crc": "0xf85cca9d",
    "pid": 1015,
    "program": 1010,
    "pts": 23508.393067
}
{
    "info_section": {
        "table_id": "0xfc",
        "section_syntax_indicator": false,
        "private": false,
        "sap_type": "0x3",
        "sap_details": "No Sap Type",
        "section_length": 47,
        "protocol_version": 0,
        "encrypted_packet": false,
        "encryption_algorithm": 0,
        "pts_adjustment": 0.0,
        "cw_index": "0xff",
        "tier": "0xfff",
        "splice_command_length": 20,
        "splice_command_type": 5,
        "descriptor_loop_length": 10
    },
    "command": {
        "command_length": 20,
        "command_type": 5,
        "name": "Splice Insert",
        "time_specified_flag": true,
        "pts_time": 23516.827656,
        "break_auto_return": false,
        "break_duration": 180.0,
        "splice_event_id": 1073743095,
        "splice_event_cancel_indicator": false,
        "out_of_network_indicator": true,
        "program_splice_flag": true,
        "duration_flag": true,
        "splice_immediate_flag": false,
        "unique_program_id": 1,
        "avail_num": 12,
        "avail_expected": 255
    },
    "descriptors": [
        {
            "tag": 0,
            "descriptor_length": 8,
            "identifier": "CUEI",
            "name": "Avail Descriptor",
            "provider_avail_id": 12
        }
    ],
    "crc": "0xf85cca9d",
    "pid": 1015,
    "program": 1010,
    "pts": 23510.393067
}
{
    "info_section": {
        "table_id": "0xfc",
        "section_syntax_indicator": false,
        "private": false,
        "sap_type": "0x3",
        "sap_details": "No Sap Type",
        "section_length": 42,
        "protocol_version": 0,
        "encrypted_packet": false,
        "encryption_algorithm": 0,
        "pts_adjustment": 0.0,
        "cw_index": "0xff",
        "tier": "0xfff",
        "splice_command_length": 15,
        "splice_command_type": 5,
        "descriptor_loop_length": 10
    },
    "command": {
        "command_length": 15,
        "command_type": 5,
        "name": "Splice Insert",
        "time_specified_flag": true,
        "pts_time": 23696.827656,
        "splice_event_id": 1073743095,
        "splice_event_cancel_indicator": false,
        "out_of_network_indicator": false,
        "program_splice_flag": true,
        "duration_flag": false,
        "splice_immediate_flag": false,
        "unique_program_id": 1,
        "avail_num": 12,
        "avail_expected": 255
    },
    "descriptors": [
        {
            "tag": 0,
            "descriptor_length": 8,
            "identifier": "CUEI",
            "name": "Avail Descriptor",
            "provider_avail_id": 12
        }
    ],
    "crc": "0x33f3c14d",
    "pid": 1015,
    "program": 1010,
    "pts": 23688.393067
}
{
    "info_section": {
        "table_id": "0xfc",
        "section_syntax_indicator": false,
        "private": false,
        "sap_type": "0x3",
        "sap_details": "No Sap Type",
        "section_length": 42,
        "protocol_version": 0,
        "encrypted_packet": false,
        "encryption_algorithm": 0,
        "pts_adjustment": 0.0,
        "cw_index": "0xff",
        "tier": "0xfff",
        "splice_command_length": 15,
        "splice_command_type": 5,
        "descriptor_loop_length": 10
    },
    "command": {
        "command_length": 15,
        "command_type": 5,
        "name": "Splice Insert",
        "time_specified_flag": true,
        "pts_time": 23696.827656,
        "splice_event_id": 1073743095,
        "splice_event_cancel_indicator": false,
        "out_of_network_indicator": false,
        "program_splice_flag": true,
        "duration_flag": false,
        "splice_immediate_flag": false,
        "unique_program_id": 1,
        "avail_num": 12,
        "avail_expected": 255
    },
    "descriptors": [
        {
            "tag": 0,
            "descriptor_length": 8,
            "identifier": "CUEI",
            "name": "Avail Descriptor",
            "provider_avail_id": 12
        }
    ],
    "crc": "0x33f3c14d",
    "pid": 1015,
    "program": 1010,
    "pts": 23690.393067
}
{
    "info_section": {
        "table_id": "0xfc",
        "section_syntax_indicator": false,
        "private": false,
        "sap_type": "0x3",
        "sap_details": "No Sap Type",
        "section_length": 42,
        "protocol_version": 0,
        "encrypted_packet": false,
        "encryption_algorithm": 0,
        "pts_adjustment": 0.0,
        "cw_index": "0xff",
        "tier": "0xfff",
        "splice_command_length": 15,
        "splice_command_type": 5,
        "descriptor_loop_length": 10
    },
    "command": {
        "command_length": 15,
        "command_type": 5,
        "name": "Splice Insert",
        "time_specified_flag": true,
        "pts_time": 23683.480033,
        "splice_event_id": 5690,
        "splice_event_cancel_indicator": false,
        "out_of_network_indicator": true,
        "program_splice_flag": true,
        "duration_flag": false,
        "splice_immediate_flag": false,
        "unique_program_id": 0,
        "avail_num": 0,
        "avail_expected": 0
    },
    "descriptors": [
        {
            "tag": 0,
            "descriptor_length": 8,
            "identifier": "CUEI",
            "name": "Avail Descriptor",
            "provider_avail_id": 0
        }
    ],
    "crc": "0xd7165c79",
    "pid": 1035,
    "program": 1030,
    "pts": 23677.030189
}

real	0m10.399s
user	0m5.803s
sys	0m3.427s
[a@localhost SCTE35-threefive]$ 
```
